<?xml version="1.0" standalone="no"?>
<!DOCTYPE svg PUBLIC "-//W3C//DTD SVG 20010904//EN"
 "http://www.w3.org/TR/2001/REC-SVG-20010904/DTD/svg10.dtd">
<svg version="1.0" xmlns="http://www.w3.org/2000/svg"
 width="3264.000000pt" height="3264.000000pt" viewBox="0 0 3264.000000 3264.000000"
 preserveAspectRatio="xMidYMid meet">

<g transform="translate(0.000000,3264.000000) scale(0.100000,-0.100000)"
fill="#000000" stroke="none">
<path d="M16140 32245 c-69 -7 -138 -18 -153 -24 -16 -6 -43 -11 -61 -11 -18
0 -63 -16 -102 -35 -38 -19 -79 -35 -92 -35 -28 0 -99 -35 -132 -65 -14 -12
-38 -25 -54 -29 -15 -4 -56 -25 -89 -46 -34 -22 -66 -40 -73 -40 -7 0 -25 -10
-41 -23 -15 -13 -55 -36 -88 -52 -33 -16 -73 -41 -90 -55 -16 -15 -49 -32 -72
-39 -26 -7 -56 -27 -79 -51 -24 -25 -47 -40 -62 -40 -28 0 -51 -11 -109 -56
-25 -19 -51 -34 -58 -34 -7 0 -26 -11 -42 -24 -30 -25 -122 -76 -137 -76 -5 0
-23 -11 -41 -24 -17 -13 -47 -31 -66 -39 -20 -8 -52 -29 -72 -46 -20 -18 -51
-36 -69 -41 -18 -5 -58 -26 -88 -45 -30 -20 -71 -40 -91 -45 -20 -6 -44 -19
-54 -30 -10 -11 -46 -34 -79 -51 -34 -17 -72 -41 -86 -53 -14 -13 -43 -28 -65
-34 -22 -6 -56 -27 -75 -47 -19 -19 -51 -40 -71 -45 -20 -6 -63 -28 -95 -50
-33 -22 -67 -40 -76 -40 -9 0 -29 -11 -45 -24 -15 -13 -53 -36 -83 -51 -30
-15 -66 -37 -80 -50 -14 -12 -41 -28 -60 -34 -20 -6 -57 -28 -82 -50 -26 -21
-63 -42 -81 -45 -19 -4 -43 -16 -53 -27 -21 -23 -86 -59 -106 -59 -7 0 -28
-15 -48 -33 -19 -19 -60 -44 -90 -56 -30 -13 -66 -33 -80 -46 -14 -12 -38 -26
-55 -29 -16 -4 -52 -24 -80 -45 -27 -21 -67 -43 -87 -50 -21 -7 -40 -17 -44
-22 -3 -5 -41 -27 -84 -49 -43 -22 -81 -44 -85 -49 -3 -6 -34 -24 -68 -42 -34
-17 -80 -44 -101 -60 -22 -16 -47 -29 -55 -29 -8 0 -37 -17 -65 -39 -28 -21
-68 -44 -89 -51 -21 -6 -51 -23 -66 -36 -16 -13 -51 -34 -78 -45 -26 -12 -61
-31 -78 -44 -16 -12 -55 -35 -85 -50 -30 -15 -68 -38 -83 -51 -16 -13 -37 -24
-47 -24 -10 0 -42 -20 -71 -45 -29 -25 -58 -45 -63 -45 -28 0 -321 -166 -401
-226 -16 -12 -43 -26 -60 -30 -16 -4 -48 -22 -71 -40 -23 -18 -65 -45 -95 -59
-102 -48 -324 -174 -374 -211 -16 -12 -48 -29 -70 -39 -22 -9 -54 -29 -70 -45
-17 -16 -52 -36 -78 -44 -26 -8 -62 -25 -80 -39 -18 -13 -48 -32 -67 -42 -19
-9 -57 -32 -85 -50 -73 -47 -187 -113 -210 -121 -11 -4 -36 -22 -55 -40 -19
-18 -54 -37 -78 -44 -23 -6 -57 -24 -76 -40 -19 -17 -53 -37 -76 -45 -23 -8
-67 -31 -98 -51 -32 -20 -88 -55 -125 -79 -38 -24 -80 -46 -95 -50 -15 -3 -41
-19 -57 -35 -17 -16 -50 -36 -75 -45 -25 -9 -62 -27 -83 -41 -21 -13 -52 -33
-70 -43 -117 -66 -208 -118 -246 -143 -25 -15 -51 -28 -58 -28 -7 0 -32 -17
-56 -38 -25 -23 -61 -44 -90 -52 -26 -7 -64 -26 -84 -42 -20 -16 -56 -37 -80
-48 -24 -10 -63 -34 -86 -53 -23 -19 -59 -40 -79 -46 -20 -7 -42 -19 -49 -27
-6 -8 -32 -23 -58 -35 -25 -11 -59 -33 -76 -48 -16 -15 -50 -35 -75 -44 -25
-9 -69 -32 -97 -51 -29 -19 -63 -38 -75 -42 -13 -4 -36 -17 -53 -29 -16 -13
-58 -37 -91 -53 -34 -17 -64 -37 -67 -45 -3 -8 -32 -23 -64 -33 -33 -10 -69
-30 -83 -45 -14 -15 -52 -37 -85 -50 -33 -12 -71 -32 -85 -44 -14 -13 -43 -31
-65 -40 -22 -9 -49 -24 -60 -34 -19 -17 -85 -55 -225 -128 -36 -19 -76 -45
-90 -57 -14 -13 -46 -33 -72 -44 -26 -11 -67 -34 -92 -51 -25 -17 -52 -31 -61
-31 -9 0 -27 -11 -40 -24 -14 -14 -51 -37 -84 -51 -33 -15 -69 -38 -81 -50
-13 -13 -45 -32 -72 -42 -28 -10 -66 -32 -85 -50 -19 -18 -42 -33 -52 -33 -9
0 -48 -20 -86 -45 -39 -25 -75 -45 -81 -45 -7 0 -34 -15 -60 -33 -27 -18 -69
-41 -94 -52 -25 -10 -56 -29 -70 -41 -14 -12 -47 -31 -74 -43 -27 -11 -66 -37
-87 -56 -22 -19 -49 -35 -60 -35 -12 0 -55 -20 -97 -45 -41 -25 -78 -45 -83
-45 -5 0 -24 -14 -43 -30 -18 -17 -56 -40 -82 -51 -27 -12 -64 -35 -82 -50
-18 -16 -39 -29 -48 -29 -21 0 -88 -35 -104 -55 -8 -10 -37 -27 -65 -40 -29
-12 -71 -36 -94 -53 -23 -17 -55 -33 -71 -37 -15 -3 -36 -15 -46 -27 -11 -11
-48 -35 -84 -53 -36 -18 -73 -43 -82 -54 -10 -12 -25 -21 -33 -21 -21 0 -72
-27 -115 -60 -19 -15 -46 -31 -60 -35 -14 -4 -57 -27 -96 -51 -39 -24 -76 -44
-83 -44 -6 0 -22 -11 -34 -24 -12 -13 -51 -36 -87 -51 -36 -15 -76 -37 -90
-50 -14 -12 -41 -28 -60 -34 -20 -6 -57 -29 -84 -51 -26 -22 -56 -40 -65 -40
-9 0 -48 -20 -86 -45 -39 -25 -75 -45 -82 -45 -6 0 -26 -12 -44 -27 -17 -15
-55 -38 -83 -51 -28 -13 -64 -33 -81 -46 -16 -12 -51 -34 -77 -49 -26 -15 -52
-36 -58 -47 -5 -10 -27 -24 -47 -31 -21 -6 -59 -31 -85 -55 -26 -24 -51 -44
-57 -44 -14 0 -197 -181 -211 -210 -7 -14 -30 -40 -51 -58 -21 -18 -40 -46
-44 -62 -4 -16 -24 -51 -46 -77 -21 -26 -46 -70 -54 -98 -8 -27 -22 -61 -32
-75 -10 -14 -39 -90 -66 -169 -40 -118 -50 -164 -57 -255 -12 -145 -13 -14578
-1 -14741 8 -104 16 -140 61 -273 28 -85 62 -175 75 -200 13 -26 31 -66 41
-89 9 -23 29 -54 45 -69 15 -15 31 -40 34 -55 8 -35 71 -117 158 -207 109
-110 139 -137 199 -175 31 -20 60 -41 63 -47 4 -6 21 -16 39 -24 18 -7 49 -28
68 -45 20 -17 56 -38 81 -47 24 -8 57 -28 73 -45 17 -17 50 -36 80 -45 28 -8
60 -24 70 -35 11 -12 44 -34 74 -50 30 -17 75 -42 100 -58 96 -60 166 -99 190
-106 14 -4 45 -23 69 -43 24 -19 61 -41 84 -49 22 -8 55 -27 73 -42 17 -16 54
-37 80 -47 27 -10 69 -32 94 -50 25 -17 61 -39 80 -49 19 -10 48 -28 63 -41
16 -13 37 -24 47 -24 10 0 46 -20 81 -44 36 -24 80 -47 99 -51 19 -4 52 -23
74 -42 21 -19 54 -42 74 -50 20 -8 50 -25 66 -38 17 -13 49 -30 71 -39 22 -10
49 -26 60 -36 11 -10 45 -30 75 -44 30 -15 77 -42 104 -61 26 -19 56 -35 66
-35 9 0 35 -14 56 -31 22 -18 62 -42 91 -55 28 -13 54 -28 58 -34 3 -6 27 -21
53 -35 26 -13 72 -40 102 -59 30 -20 62 -36 71 -36 8 0 40 -18 70 -39 30 -21
72 -46 94 -55 22 -9 49 -26 60 -36 11 -10 43 -29 70 -41 28 -12 59 -29 70 -39
11 -10 57 -38 103 -62 46 -23 100 -52 121 -63 21 -11 55 -33 76 -49 20 -16 60
-38 89 -48 28 -11 62 -30 76 -43 14 -13 50 -35 82 -50 31 -14 61 -32 67 -39 7
-8 38 -27 69 -42 31 -15 75 -40 96 -56 21 -15 47 -28 57 -28 10 0 38 -18 64
-40 25 -22 63 -44 84 -50 21 -5 45 -17 52 -26 7 -9 48 -33 90 -55 43 -21 80
-43 83 -48 9 -14 200 -121 217 -121 8 0 36 -18 63 -40 26 -22 65 -44 87 -50
21 -6 51 -22 66 -37 16 -14 56 -39 90 -54 34 -16 65 -34 68 -40 4 -6 35 -24
70 -39 34 -15 82 -42 105 -59 24 -17 48 -31 54 -31 6 0 42 -21 80 -45 38 -25
75 -45 82 -45 7 0 25 -11 41 -24 15 -13 61 -40 101 -60 39 -20 72 -40 72 -45
0 -4 19 -16 42 -27 22 -10 57 -30 77 -44 20 -14 56 -34 80 -44 24 -9 62 -32
83 -50 22 -19 58 -39 82 -45 23 -6 51 -20 62 -32 10 -12 53 -39 94 -61 41 -21
109 -59 150 -83 41 -25 97 -57 125 -71 27 -15 65 -39 85 -54 19 -15 59 -35 87
-45 29 -9 56 -23 61 -30 7 -13 80 -57 222 -133 36 -19 75 -43 88 -53 13 -10
45 -25 72 -34 32 -10 57 -27 70 -46 15 -20 38 -34 74 -44 30 -9 62 -25 72 -36
11 -12 44 -34 74 -49 30 -15 78 -43 107 -61 103 -67 140 -88 189 -109 27 -12
60 -32 74 -45 14 -13 45 -31 69 -39 23 -9 57 -28 74 -42 18 -15 55 -37 82 -50
28 -12 65 -34 84 -48 19 -14 50 -31 70 -37 20 -6 47 -22 61 -35 14 -12 47 -32
74 -44 27 -11 66 -36 86 -54 22 -19 53 -36 76 -40 21 -4 55 -20 74 -35 20 -16
56 -39 80 -51 25 -13 59 -33 76 -46 16 -13 50 -32 75 -43 25 -11 53 -29 63
-39 9 -11 37 -25 62 -32 24 -7 63 -29 87 -50 23 -20 59 -43 80 -49 21 -7 51
-24 66 -37 16 -13 54 -35 84 -49 30 -13 58 -29 62 -35 4 -7 34 -25 67 -40 33
-16 70 -38 82 -49 11 -11 43 -29 69 -40 26 -11 68 -36 94 -56 25 -19 56 -35
68 -35 13 0 43 -16 67 -36 23 -20 59 -43 78 -51 19 -8 50 -26 67 -39 18 -14
54 -35 80 -47 27 -12 63 -33 81 -45 18 -13 48 -28 67 -33 19 -6 55 -27 79 -48
24 -21 56 -41 71 -45 15 -4 49 -22 77 -41 27 -19 68 -40 90 -47 21 -6 44 -20
50 -31 5 -10 42 -34 82 -52 39 -19 80 -42 89 -53 10 -11 35 -23 55 -27 22 -4
59 -25 91 -51 29 -24 61 -44 71 -44 9 0 34 -14 55 -30 21 -17 67 -44 101 -61
35 -16 66 -34 70 -40 3 -6 32 -23 64 -38 32 -15 73 -40 90 -54 17 -15 39 -27
49 -27 9 0 44 -20 77 -44 32 -24 72 -46 88 -50 17 -4 44 -20 62 -35 18 -16 54
-37 80 -46 27 -10 63 -31 79 -46 17 -15 50 -35 75 -45 25 -10 61 -30 81 -46
20 -15 43 -28 50 -28 16 0 95 -46 132 -77 16 -12 38 -23 49 -23 11 0 37 -14
58 -30 21 -17 63 -41 92 -54 30 -13 60 -31 68 -41 8 -9 44 -32 80 -50 36 -18
72 -40 79 -49 7 -8 26 -18 43 -21 17 -4 57 -27 88 -51 32 -24 69 -44 82 -44
14 0 37 -13 54 -31 25 -27 99 -69 120 -69 4 0 23 -12 43 -27 38 -30 105 -63
126 -63 7 0 28 -13 48 -29 24 -19 52 -30 87 -34 32 -4 66 -17 93 -35 80 -56
152 -64 528 -60 360 4 375 6 460 63 20 13 60 28 88 33 28 5 68 21 88 34 21 14
61 34 88 44 28 10 65 29 83 42 17 14 58 37 90 52 31 15 67 39 79 54 13 14 33
26 46 26 13 0 51 20 85 45 34 25 68 45 76 45 8 0 27 11 43 24 15 13 53 36 83
51 30 15 66 37 80 50 14 12 42 28 63 35 21 6 59 28 84 47 26 20 62 40 82 45
19 6 53 25 75 44 22 19 58 40 81 46 22 7 55 23 73 37 18 13 57 35 85 48 29 14
62 33 73 44 12 11 48 33 80 49 33 15 74 40 93 54 19 14 43 26 52 26 9 0 44 20
77 45 33 25 66 45 74 45 7 0 31 12 53 27 22 15 65 40 96 54 31 15 60 32 63 38
4 6 35 25 69 42 34 17 73 41 87 54 14 13 42 28 62 33 21 6 59 28 85 50 26 22
65 45 86 50 20 6 51 22 68 36 17 14 35 26 41 26 6 0 34 17 62 37 28 20 78 50
111 66 33 16 69 37 80 48 11 10 40 25 64 34 23 8 57 27 74 41 18 15 60 39 93
55 34 15 65 32 69 39 4 6 31 22 61 35 30 13 69 34 87 47 17 12 56 34 87 49 30
14 64 36 74 48 11 11 36 26 57 31 21 6 56 26 78 44 23 19 58 40 79 46 20 7 47
22 60 34 23 20 91 60 224 130 37 19 83 46 101 60 19 14 42 26 51 26 10 0 36
18 59 40 27 27 58 46 93 56 28 8 60 24 70 36 11 11 43 31 71 44 29 12 67 34
85 47 18 14 49 32 69 40 19 8 51 28 70 44 19 16 54 35 79 42 25 7 60 27 79 43
19 17 55 39 80 50 25 11 53 26 62 34 8 7 47 30 85 50 143 74 178 95 222 129
25 19 59 37 76 40 17 4 49 22 71 41 22 19 57 39 77 44 20 6 50 21 65 34 15 13
51 35 80 49 28 15 54 31 58 37 4 6 39 27 78 46 40 20 81 45 92 55 11 10 40 25
64 34 24 8 61 30 82 49 20 19 53 39 71 44 18 5 57 26 87 46 29 20 59 36 66 36
6 0 31 14 54 30 23 17 67 42 97 57 31 14 62 36 70 49 10 14 30 25 55 29 22 4
61 23 86 42 25 19 64 43 87 53 22 9 65 34 95 54 29 20 58 36 64 36 5 0 24 11
42 24 18 14 60 38 95 55 35 17 69 39 76 50 7 10 34 24 59 30 26 6 62 26 84 46
21 19 57 41 79 49 23 8 65 31 94 50 29 20 58 36 64 36 6 0 24 12 39 26 15 14
53 37 84 50 31 14 70 38 86 53 17 16 44 32 62 36 18 3 54 23 80 44 26 21 60
41 74 44 15 4 48 22 75 40 27 19 70 43 95 54 26 12 50 26 53 32 4 6 37 25 74
42 37 16 78 40 92 53 14 13 42 29 62 35 20 7 56 26 80 44 37 27 117 72 223
125 17 8 44 27 60 42 17 15 52 35 79 45 26 9 63 31 82 47 18 16 49 34 68 39
19 5 59 27 88 49 29 22 60 40 69 40 10 0 32 12 49 26 17 15 62 41 99 59 38 18
72 38 75 44 4 6 32 23 63 37 30 15 69 39 87 54 17 15 48 33 68 39 20 7 56 27
80 45 24 18 54 36 68 41 14 4 42 20 62 36 20 16 41 29 45 29 14 0 81 36 116
62 18 13 53 32 78 41 25 10 61 31 79 47 19 17 49 34 67 39 18 5 51 25 74 45
23 19 55 38 73 41 17 4 54 21 81 39 78 50 155 96 215 129 30 16 69 40 86 52
16 13 46 30 65 38 20 8 56 30 81 49 25 20 59 39 75 42 15 4 43 19 61 32 18 14
56 36 85 49 29 12 59 31 67 40 8 9 37 27 65 40 28 12 67 36 86 53 19 17 51 33
71 37 19 4 57 24 83 46 25 21 62 43 80 48 18 5 53 22 77 39 24 16 61 39 84 50
22 11 46 27 53 36 7 8 29 20 49 27 20 6 59 27 85 46 26 18 71 44 100 57 29 13
63 35 76 50 14 14 43 31 65 37 23 6 52 19 66 29 14 10 53 33 85 51 33 17 69
40 80 49 11 10 38 25 59 34 22 9 58 31 80 50 23 18 56 37 73 40 18 4 54 25 80
46 26 22 59 42 75 45 15 4 49 22 75 41 67 48 111 79 158 110 87 58 251 217
306 297 22 31 44 57 49 57 4 0 13 15 20 34 6 18 20 42 31 52 22 20 61 90 74
134 4 14 17 36 29 50 13 16 31 67 45 125 12 55 32 127 42 160 11 33 24 101 30
150 7 61 9 2473 7 7435 l-3 7345 -26 80 c-15 44 -39 130 -54 192 -15 62 -33
117 -41 123 -7 7 -20 34 -29 61 -10 28 -33 71 -52 96 -19 25 -43 64 -53 87 -9
22 -28 50 -40 61 -12 11 -37 43 -55 70 -33 50 -87 108 -167 178 -24 20 -59 51
-78 69 -19 17 -54 41 -77 54 -24 12 -62 39 -85 58 -23 20 -59 41 -79 46 -20 6
-43 17 -50 26 -7 9 -42 31 -78 49 -36 18 -75 42 -85 54 -11 12 -24 21 -31 21
-6 0 -44 21 -85 46 -41 26 -88 51 -105 57 -16 6 -52 27 -80 48 -27 20 -61 40
-75 44 -14 4 -34 15 -45 25 -11 10 -49 32 -84 49 -35 16 -73 38 -85 49 -11 11
-32 23 -46 27 -14 4 -32 13 -40 20 -32 26 -116 72 -144 79 -16 4 -49 25 -73
46 -25 21 -59 42 -76 46 -18 3 -48 19 -67 34 -19 15 -57 37 -85 50 -27 12 -59
31 -71 41 -12 11 -53 35 -91 53 -39 19 -74 39 -78 46 -4 6 -26 20 -50 30 -23
10 -64 34 -90 54 -25 20 -55 36 -65 36 -10 0 -31 11 -47 23 -15 13 -57 38 -93
56 -36 18 -72 39 -80 47 -26 25 -199 124 -215 124 -23 0 -45 13 -87 53 -22 20
-55 39 -82 46 -25 6 -46 15 -46 20 0 5 -33 25 -72 46 -40 21 -82 45 -93 55
-31 26 -221 130 -238 130 -8 0 -33 15 -56 34 -22 19 -62 42 -88 52 -27 10 -54
26 -61 36 -7 10 -43 32 -80 49 -37 17 -70 37 -74 44 -4 7 -22 18 -40 25 -18 7
-62 32 -98 55 -36 23 -78 45 -94 49 -16 4 -49 25 -73 46 -25 21 -59 42 -76 46
-18 3 -44 17 -59 29 -15 13 -56 37 -90 53 -35 16 -72 39 -82 51 -11 11 -24 21
-29 21 -5 0 -39 18 -74 41 -36 22 -84 47 -106 55 -23 8 -50 24 -60 35 -11 12
-48 34 -82 49 -35 15 -66 33 -69 39 -4 6 -34 25 -68 41 -33 17 -74 41 -90 55
-16 14 -42 28 -56 31 -15 4 -34 12 -42 19 -28 23 -126 75 -143 75 -8 0 -32 16
-52 35 -20 18 -58 42 -83 51 -26 10 -56 25 -67 35 -11 9 -47 32 -80 50 -33 17
-69 40 -80 49 -11 10 -38 27 -60 39 -22 12 -58 33 -80 47 -22 13 -59 29 -83
35 -26 7 -50 21 -59 36 -9 13 -44 37 -77 54 -58 28 -182 99 -256 146 -19 13
-42 23 -50 23 -8 0 -35 16 -59 35 -24 19 -62 40 -85 46 -23 6 -57 26 -76 44
-19 18 -52 38 -72 44 -20 7 -57 28 -82 47 -24 18 -48 34 -51 34 -4 0 -38 20
-76 45 -38 25 -76 45 -83 45 -8 0 -36 15 -62 33 -27 19 -70 42 -96 51 -25 10
-59 31 -74 47 -15 16 -43 34 -63 40 -20 6 -49 22 -66 34 -16 12 -50 32 -75 45
-25 12 -65 37 -90 55 -25 18 -63 40 -85 49 -22 9 -49 26 -60 36 -12 11 -43 26
-70 34 -26 8 -64 30 -84 49 -20 19 -52 40 -71 47 -19 7 -48 23 -65 35 -16 12
-50 32 -75 45 -25 13 -58 33 -75 45 -16 13 -51 32 -77 43 -26 11 -63 33 -82
47 -19 14 -50 31 -70 36 -19 5 -53 25 -75 43 -23 19 -63 42 -90 51 -27 9 -55
23 -62 31 -7 9 -36 27 -63 41 -28 14 -60 34 -71 44 -12 10 -53 34 -92 53 -39
19 -74 39 -77 45 -3 5 -37 21 -74 35 -44 17 -76 37 -90 55 -11 16 -33 32 -48
35 -15 4 -41 18 -58 30 -17 13 -56 36 -86 51 -30 15 -68 38 -85 50 -16 13 -52
32 -78 44 -27 11 -62 32 -78 46 -17 13 -47 29 -67 35 -21 5 -51 23 -67 40 -15
16 -49 37 -74 46 -25 10 -57 27 -71 40 -14 12 -55 36 -91 52 -36 17 -71 38
-78 46 -7 9 -38 27 -67 40 -30 14 -68 35 -84 46 -16 11 -48 27 -72 36 -24 8
-60 28 -81 45 -20 17 -54 37 -75 46 -20 8 -46 23 -57 32 -11 10 -42 26 -69 36
-27 10 -65 32 -85 50 -20 18 -58 42 -84 53 -27 12 -62 33 -78 47 -17 13 -47
29 -67 35 -20 5 -58 27 -85 49 -26 22 -60 42 -76 46 -16 3 -37 15 -46 25 -9
10 -42 31 -73 47 -32 15 -79 42 -106 60 -26 18 -52 33 -57 33 -5 0 -38 17 -72
39 -34 21 -73 42 -87 46 -14 4 -36 18 -50 30 -34 31 -92 65 -111 65 -9 0 -24
9 -33 19 -10 11 -45 33 -79 49 -34 16 -79 44 -101 61 -21 17 -44 31 -51 31
-17 0 -100 47 -115 65 -7 8 -28 18 -49 21 -21 4 -56 24 -85 50 -27 23 -61 46
-75 49 -14 4 -40 17 -58 31 -17 13 -35 24 -39 24 -16 0 -102 47 -132 72 -18
16 -38 28 -44 28 -6 0 -44 20 -84 45 -39 25 -81 45 -93 45 -12 0 -34 13 -49
29 -32 34 -90 71 -113 71 -9 0 -24 10 -35 21 -10 12 -50 37 -88 55 -38 18 -78
42 -90 52 -12 11 -32 23 -46 27 -14 4 -54 27 -91 51 -36 24 -75 44 -87 44 -12
0 -36 13 -54 29 -44 38 -69 50 -127 61 -27 5 -65 20 -85 34 -21 14 -58 28 -84
31 -26 3 -78 12 -117 20 -86 18 -269 35 -350 34 -33 -1 -116 -7 -185 -14z
m-3605 -10354 c87 -7 184 -19 214 -27 30 -8 75 -14 99 -14 24 0 65 -6 91 -14
66 -21 138 -37 200 -47 29 -4 58 -12 64 -18 6 -6 23 -11 37 -11 14 0 35 -7 46
-15 10 -8 28 -15 39 -15 11 0 32 -6 46 -14 14 -7 38 -16 53 -20 16 -4 56 -20
90 -36 33 -15 68 -31 76 -34 8 -3 22 -10 30 -14 15 -9 71 -35 100 -46 8 -3 22
-10 30 -15 8 -5 26 -14 40 -20 28 -12 63 -32 245 -144 11 -7 92 -67 180 -134
146 -111 191 -149 355 -307 58 -56 225 -235 250 -268 8 -11 33 -43 55 -72 22
-28 51 -67 65 -86 13 -19 34 -46 47 -58 12 -13 43 -58 68 -100 66 -111 67
-113 98 -160 15 -24 27 -49 27 -56 0 -8 7 -19 15 -26 8 -7 15 -20 15 -30 0
-10 7 -23 15 -30 8 -7 15 -17 15 -22 0 -6 22 -56 48 -112 49 -102 67 -146 82
-201 5 -16 18 -55 30 -85 25 -63 47 -142 60 -215 5 -27 14 -61 19 -75 13 -33
29 -115 42 -215 6 -44 16 -105 22 -135 8 -37 12 -175 12 -420 0 -245 -4 -383
-12 -420 -6 -30 -16 -91 -22 -135 -12 -92 -25 -159 -45 -230 -7 -27 -21 -84
-31 -125 -9 -41 -23 -89 -31 -107 -8 -17 -14 -37 -14 -45 0 -7 -6 -22 -14 -33
-7 -11 -16 -31 -19 -45 -6 -32 -25 -84 -47 -135 -29 -65 -111 -239 -121 -255
-5 -8 -13 -25 -19 -38 -5 -12 -28 -50 -50 -83 -22 -33 -40 -62 -40 -65 0 -11
-85 -132 -191 -274 -152 -201 -456 -512 -609 -621 -25 -17 -52 -38 -60 -45
-38 -35 -172 -129 -243 -172 -43 -26 -91 -55 -105 -64 -64 -40 -415 -208 -456
-219 -38 -9 -91 -27 -131 -44 -34 -15 -98 -32 -170 -46 -27 -5 -59 -14 -70
-19 -11 -5 -42 -14 -70 -19 -27 -5 -68 -14 -90 -20 -88 -22 -224 -41 -298 -41
-104 0 -320 -20 -331 -31 -8 -7 43 -74 114 -150 8 -8 26 -29 40 -45 80 -94
206 -238 226 -258 5 -6 37 -42 69 -80 32 -38 65 -77 74 -86 17 -17 31 -33 121
-140 30 -36 59 -70 65 -76 70 -77 97 -107 135 -154 25 -30 52 -62 60 -70 51
-55 88 -98 220 -254 14 -16 32 -37 40 -46 46 -50 100 -112 140 -160 25 -29 56
-66 70 -80 14 -14 57 -64 96 -111 40 -46 84 -97 98 -113 15 -15 64 -72 108
-125 45 -53 89 -103 97 -112 9 -9 27 -29 41 -45 86 -100 234 -270 239 -274 4
-3 36 -40 71 -84 36 -43 79 -93 95 -110 17 -17 58 -62 90 -101 33 -38 65 -75
70 -81 6 -6 33 -38 61 -70 29 -33 73 -84 99 -114 56 -65 144 -166 165 -190 8
-9 40 -45 70 -81 30 -35 60 -68 66 -74 6 -5 37 -41 70 -80 32 -38 64 -75 69
-81 6 -6 19 -22 30 -35 42 -49 179 -206 225 -259 77 -87 90 -102 129 -149 20
-25 47 -57 61 -71 33 -35 130 -146 166 -190 16 -19 45 -53 66 -75 57 -63 88
-98 109 -127 l20 -28 -26 -10 c-34 -13 -2864 -14 -2898 -1 -21 8 -54 43 -221
235 -28 33 -58 67 -67 75 -8 9 -33 38 -55 66 -21 27 -46 56 -54 65 -46 50 -93
103 -145 165 -32 39 -62 72 -66 75 -3 3 -39 43 -79 90 -66 78 -171 198 -195
224 -6 6 -37 42 -70 81 -33 38 -64 75 -70 81 -11 13 -33 38 -120 139 -33 38
-64 75 -70 81 -5 6 -23 26 -39 45 -16 19 -45 52 -65 74 -20 22 -56 65 -81 94
-25 30 -59 70 -77 89 -18 19 -51 57 -75 85 -79 94 -121 142 -127 147 -3 3 -38
42 -76 86 -94 109 -159 184 -187 214 -13 14 -48 55 -78 90 -54 64 -90 107
-120 139 -8 9 -40 46 -70 81 -30 36 -61 72 -70 81 -8 9 -24 27 -35 40 -61 71
-267 307 -295 339 -8 9 -39 45 -69 81 -30 35 -59 69 -66 74 -6 6 -49 55 -95
110 -46 55 -87 102 -90 105 -4 3 -42 46 -84 95 -98 113 -176 203 -197 224 -8
9 -33 38 -55 65 -21 28 -52 64 -69 81 -37 39 -64 70 -135 155 -30 36 -57 67
-60 70 -3 3 -37 41 -75 86 -39 44 -95 109 -125 143 -30 35 -67 77 -82 95 l-28
31 -526 3 c-385 2 -530 -1 -540 -9 -12 -10 -14 -348 -14 -2199 l0 -2187 -31
-7 c-53 -10 -2145 -7 -2173 4 l-26 10 2 3307 3 3308 3190 6 c2852 5 3198 7
3270 21 74 15 140 35 190 58 11 5 31 12 45 16 14 4 42 18 63 31 21 13 48 28
60 33 56 25 191 138 260 219 27 31 59 67 70 81 27 31 33 41 95 165 28 55 54
114 57 130 4 17 13 48 20 70 13 40 28 178 28 265 0 83 -16 245 -26 265 -6 11
-14 36 -18 55 -18 83 -53 158 -137 296 -27 44 -136 168 -180 204 -29 25 -61
52 -70 60 -9 9 -46 33 -82 54 -36 20 -72 41 -80 46 -94 56 -243 93 -430 110
-60 5 -1266 9 -2841 9 -2199 1 -2739 3 -2747 14 -6 7 -20 44 -32 82 -12 39
-27 84 -35 100 -7 17 -16 45 -20 63 -4 18 -13 45 -21 60 -8 15 -14 36 -14 48
0 11 -4 24 -9 30 -6 5 -14 27 -20 49 -12 52 -30 103 -47 138 -8 16 -14 37 -14
47 0 11 -6 34 -14 52 -15 36 -13 31 -92 268 -30 91 -59 179 -65 195 -6 17 -14
44 -18 60 -4 17 -12 39 -18 50 -6 11 -18 47 -28 80 -9 33 -23 76 -31 95 -7 19
-30 87 -50 150 -20 63 -43 129 -50 147 -8 17 -14 40 -14 50 0 11 -7 28 -15 39
-8 10 -15 31 -15 45 0 14 -7 34 -15 45 -8 10 -15 29 -15 41 0 12 -6 37 -14 55
-40 97 -63 186 -53 212 6 15 229 16 3189 13 2453 -2 3220 -6 3343 -16z m11045
1 c80 -7 175 -19 212 -27 37 -8 85 -15 108 -15 22 0 57 -7 77 -15 19 -8 47
-15 61 -15 14 0 48 -6 76 -14 68 -19 133 -35 178 -45 21 -5 43 -13 50 -19 7
-5 30 -13 51 -17 20 -4 40 -11 43 -16 3 -5 12 -9 20 -9 15 0 58 -18 172 -71
107 -50 186 -87 202 -93 8 -3 22 -10 30 -15 8 -6 48 -29 88 -53 40 -24 85 -51
100 -60 15 -10 34 -21 42 -25 26 -12 110 -77 110 -85 0 -4 5 -8 10 -8 29 0
337 -263 449 -384 20 -21 56 -59 81 -85 75 -77 142 -159 244 -296 53 -71 100
-134 104 -140 11 -14 137 -227 145 -245 4 -8 11 -22 16 -30 30 -50 141 -292
141 -307 0 -11 5 -24 11 -30 6 -6 14 -26 19 -44 10 -38 36 -113 50 -144 5 -11
11 -36 13 -55 3 -19 9 -48 15 -65 39 -111 73 -296 102 -555 11 -100 11 -4986
0 -5070 -5 -36 -16 -119 -24 -185 -18 -138 -46 -269 -79 -375 -5 -19 -14 -51
-18 -70 -4 -19 -17 -60 -29 -90 -12 -30 -26 -68 -30 -85 -14 -49 -39 -113 -71
-184 -46 -98 -128 -262 -147 -293 -9 -15 -44 -71 -76 -125 -52 -86 -198 -288
-252 -349 -136 -152 -178 -199 -234 -254 -88 -88 -285 -263 -336 -297 -23 -15
-55 -38 -70 -50 -64 -50 -163 -123 -168 -123 -3 0 -24 -12 -48 -27 -74 -48
-82 -53 -108 -65 -14 -7 -27 -15 -30 -19 -5 -5 -77 -41 -110 -53 -8 -3 -22
-10 -30 -15 -8 -5 -22 -12 -30 -15 -8 -3 -22 -10 -30 -15 -13 -9 -81 -39 -135
-61 -11 -4 -49 -18 -85 -30 -36 -12 -77 -28 -92 -36 -14 -8 -35 -14 -45 -14
-10 0 -23 -4 -28 -9 -10 -9 -111 -38 -180 -51 -22 -4 -60 -12 -85 -18 -80 -20
-153 -33 -245 -42 -49 -5 -106 -15 -125 -22 -46 -16 -6561 -25 -6603 -9 l-27
11 2 3307 3 3308 1110 0 1110 0 5 -2200 5 -2200 2005 -3 c2021 -3 2244 1 2305
32 17 9 40 16 51 16 12 0 35 7 50 15 16 8 37 15 46 15 9 0 20 5 23 10 4 6 21
17 38 25 54 24 112 59 158 95 80 62 242 234 274 292 44 79 97 192 111 238 10
30 23 69 29 85 7 17 16 75 21 130 11 132 11 4551 0 4680 -4 55 -14 112 -21
127 -7 15 -16 45 -20 68 -4 22 -11 42 -16 46 -5 3 -9 15 -9 27 0 13 -6 31 -14
42 -7 11 -32 56 -55 100 -23 44 -45 82 -50 85 -4 3 -32 37 -63 75 -102 128
-193 200 -355 280 -29 15 -55 30 -58 34 -2 5 -26 11 -53 15 -27 3 -52 10 -56
14 -4 4 -49 16 -99 26 -89 19 -185 19 -2908 23 -2209 3 -2819 6 -2827 16 -11
13 -110 295 -119 337 -2 14 -10 39 -18 55 -20 48 -36 97 -45 138 -4 21 -13 44
-19 50 -6 6 -11 20 -11 30 0 10 -6 33 -14 50 -7 18 -32 88 -54 157 -62 187
-64 192 -78 228 -8 18 -14 43 -14 55 0 13 -7 32 -15 43 -8 10 -15 28 -15 39 0
11 -7 33 -15 49 -8 15 -15 35 -15 43 0 8 -6 29 -14 46 -7 18 -32 88 -54 157
-54 166 -62 189 -78 228 -8 18 -14 43 -14 55 0 12 -7 31 -15 41 -8 11 -15 29
-15 40 0 12 -7 34 -15 50 -8 15 -15 35 -15 43 0 8 -6 29 -14 46 -36 85 -65
200 -55 218 10 19 71 19 3197 16 2319 -3 3227 -7 3332 -15z"/>
</g>
</svg>
